<?xml version="1.0" encoding="utf-8"?>
<!-- Generator: Adobe Illustrator 26.0.1, SVG Export Plug-In . SVG Version: 6.00 Build 0)  -->
<svg version="1.1" id="Layer_1" xmlns="http://www.w3.org/2000/svg" xmlns:xlink="http://www.w3.org/1999/xlink" x="0px" y="0px"
	 viewBox="0 0 16 16" style="enable-background:new 0 0 16 16;" xml:space="preserve">
<path d="M15.5,1c0-0.3-0.2-0.5-0.5-0.5h-1.4c-0.2,0-0.4,0.2-0.5,0.4l-0.4,1.6H1.5C1.2,2.5,1,2.7,1,3c0,0,0,0.1,0,0.1l1.4,8
	c0,0.2,0.2,0.4,0.5,0.4h8.7c0.2,0,0.4-0.2,0.5-0.4l1.4-8l0.4-1.6H15C15.2,1.5,15.5,1.3,15.5,1 M12.5,3.5l-1.3,7H3.3L2,3.5H12.5z
	 M10.6,11.5c1.1,0,1.9,0.9,1.9,2s-0.9,2-1.9,2s-1.9-0.9-1.9-2S9.6,11.5,10.6,11.5 M3.9,11.5c1.1,0,1.9,0.9,1.9,2s-0.9,2-1.9,2
	s-1.9-0.9-1.9-2S2.8,11.5,3.9,11.5 M10.6,12.5c-0.5,0-1,0.4-1,1s0.4,1,1,1s1-0.4,1-1S11.2,12.5,10.6,12.5 M3.9,12.5
	c-0.5,0-1,0.4-1,1s0.4,1,1,1s1-0.4,1-1S4.4,12.5,3.9,12.5"/>
</svg>
